<svg width="17" height="15" viewBox="0 0 17 15" fill="none" xmlns="http://www.w3.org/2000/svg">
<path d="M15.5833 3.75001H8.93773L7.72081 1.59563C7.66171 1.49126 7.57067 1.40357 7.458 1.34249C7.34534 1.28141 7.21555 1.24937 7.08331 1.25001H1.41665C1.22878 1.25001 1.04862 1.31586 0.915779 1.43307C0.782941 1.55028 0.708313 1.70925 0.708313 1.87501V13.125C0.708313 13.2908 0.782941 13.4497 0.915779 13.567C1.04862 13.6842 1.22878 13.75 1.41665 13.75H15.5833C15.7712 13.75 15.9513 13.6842 16.0842 13.567C16.217 13.4497 16.2916 13.2908 16.2916 13.125V4.37501C16.2916 4.20925 16.217 4.05028 16.0842 3.93307C15.9513 3.81586 15.7712 3.75001 15.5833 3.75001ZM2.12498 2.50001H6.64556L7.3539 3.75001H2.12498V2.50001ZM14.875 12.5H2.12498V5.00001H14.875V12.5Z" fill="#1DB1B7"/>
</svg>
