<svg width="24" height="24" viewBox="0 0 24 24" fill="none" xmlns="http://www.w3.org/2000/svg">
<path d="M20.4999 4.60901C19.9525 3.94661 19.2649 3.41387 18.4868 3.04918C17.7086 2.6845 16.8593 2.49694 15.9999 2.50001C14.5296 2.45549 13.0981 2.9762 11.9999 3.95501C10.9018 2.9762 9.47031 2.45549 7.99995 2.50001C7.14059 2.49694 6.29125 2.6845 5.51312 3.04918C4.73498 3.41387 4.04741 3.94661 3.49995 4.60901C2.54695 5.76501 1.54995 7.85801 2.21095 11.269C3.26595 16.716 11.1769 21.186 11.5109 21.369C11.6598 21.452 11.8275 21.4956 11.9979 21.4956C12.1684 21.4956 12.3361 21.452 12.4849 21.369C12.8209 21.182 20.7319 16.712 21.7849 11.269C22.4499 7.85801 21.4529 5.76501 20.4999 4.60901ZM19.8259 10.889C19.0799 14.74 13.6579 18.322 11.9999 19.34C9.66395 17.93 4.85795 14.39 4.17895 10.889C3.66595 8.24301 4.36795 6.70601 5.04795 5.88201C5.40755 5.44812 5.85872 5.0992 6.3691 4.86026C6.87948 4.62132 7.43641 4.4983 7.99995 4.50001C8.60184 4.45487 9.20516 4.56647 9.75108 4.82392C10.297 5.08137 10.7669 5.47589 11.1149 5.96901C11.2008 6.12695 11.3274 6.25897 11.4816 6.35133C11.6358 6.44369 11.812 6.493 11.9917 6.49412C12.1714 6.49524 12.3482 6.44814 12.5035 6.35772C12.6589 6.26729 12.7872 6.13686 12.8749 5.98001C13.2223 5.48305 13.6932 5.08519 14.2412 4.82566C14.7892 4.56613 15.3954 4.4539 15.9999 4.50001C16.5647 4.49726 17.123 4.61979 17.6346 4.85876C18.1463 5.09773 18.5986 5.44721 18.9589 5.88201C19.6369 6.70601 20.3389 8.24301 19.8259 10.889Z" fill="#121111"/>
</svg>
