<svg width="20" height="20" viewBox="0 0 20 20" fill="none" xmlns="http://www.w3.org/2000/svg">
<path d="M13.709 2.35145C12.6836 1.32635 11.3999 0.597964 9.99392 0.24358C8.58799 -0.110803 7.11234 -0.0779615 5.72357 0.338619C4.3348 0.7552 3.0847 1.53998 2.10595 2.60968C1.12719 3.67938 0.456277 4.9941 0.164405 6.41433C-0.127467 7.83456 -0.0294102 9.30731 0.448169 10.6763C0.925749 12.0453 1.76504 13.2595 2.87697 14.19C3.9889 15.1205 5.332 15.7326 6.76374 15.9614C8.19549 16.1902 9.66246 16.0271 11.009 15.4895L14.589 19.0704C15.1822 19.6641 15.9869 19.9979 16.8261 19.9983C17.6653 19.9986 18.4703 19.6656 19.064 19.0725C19.6577 18.4793 19.9914 17.6746 19.9918 16.8354C19.9922 15.9961 19.6592 15.1911 19.066 14.5975L15.486 11.0175C16.0688 9.55732 16.2112 7.95843 15.8954 6.41832C15.5795 4.87821 14.8195 3.46436 13.709 2.35145ZM8.027 14.0665C6.63127 14.0669 5.27856 13.5834 4.19935 12.6983C3.12013 11.8133 2.38118 10.5814 2.1084 9.21255C1.83561 7.84374 2.04587 6.42268 2.70335 5.19151C3.36083 3.96034 4.42485 2.99522 5.71413 2.46059C7.00341 1.92596 8.43817 1.8549 9.77397 2.25951C11.1098 2.66412 12.2639 3.51937 13.0399 4.67955C13.8158 5.83972 14.1655 7.23304 14.0293 8.62211C13.8931 10.0112 13.2795 11.3101 12.293 12.2975C11.734 12.8595 11.0692 13.3052 10.337 13.6088C9.6048 13.9125 8.81968 14.068 8.027 14.0665ZM17.652 16.0094C17.8611 16.2297 17.9759 16.523 17.9719 16.8267C17.968 17.1304 17.8456 17.4205 17.6308 17.6353C17.4161 17.85 17.1259 17.9724 16.8222 17.9764C16.5185 17.9804 16.2253 17.8655 16.005 17.6565L12.819 14.4705C13.1333 14.2396 13.4307 13.9866 13.709 13.7135C13.9821 13.4351 14.2351 13.1377 14.466 12.8235L17.652 16.0094ZM9.028 11.9975C9.028 12.2627 8.92264 12.517 8.73511 12.7046C8.54757 12.8921 8.29322 12.9975 8.028 12.9975C6.7116 12.9959 5.44955 12.4723 4.51861 11.5415C3.58768 10.6108 3.06385 9.34886 3.062 8.03245C3.06118 7.76541 3.16574 7.50883 3.35297 7.31842C3.5402 7.128 3.79498 7.01914 4.062 7.01545C4.19239 7.01333 4.32191 7.03715 4.44301 7.08552C4.56412 7.1339 4.6744 7.20586 4.76745 7.29724C4.8605 7.38861 4.93445 7.49757 4.98502 7.61777C5.03558 7.73798 5.06175 7.86704 5.062 7.99745V8.03245C5.06279 8.81875 5.37557 9.5726 5.93166 10.1285C6.48775 10.6844 7.2417 10.9969 8.028 10.9975C8.29322 10.9975 8.54757 11.1028 8.73511 11.2903C8.92264 11.4779 9.028 11.7322 9.028 11.9975Z" fill="#979797" fill-opacity="0.39"/>
</svg>
