<svg width="17" height="20" viewBox="0 0 17 20" fill="none" xmlns="http://www.w3.org/2000/svg">
<path d="M10.9996 9.75C10.9996 11.1307 9.88032 12.25 8.4996 12.25C7.11889 12.25 5.9996 11.1307 5.9996 9.75C5.9996 8.36929 7.11889 7.25 8.4996 7.25C9.88032 7.25 10.9996 8.36929 10.9996 9.75Z" stroke="#FFF7F7" stroke-width="2"/>
<path d="M6.36903 2.66065C7.0121 0.446452 9.98711 0.446452 10.6302 2.66065C10.9725 3.83922 12.1215 4.53821 13.2614 4.26125C15.4029 3.74093 16.8904 6.45552 15.392 8.14939C14.5944 9.05101 14.5944 10.449 15.392 11.3506C16.8904 13.0445 15.4029 15.7591 13.2614 15.2387C12.1215 14.9618 10.9725 15.6608 10.6302 16.8394C9.98711 19.0535 7.0121 19.0535 6.36903 16.8394C6.02674 15.6608 4.87767 14.9618 3.73778 15.2387C1.59629 15.7591 0.108781 13.0445 1.60721 11.3506C2.4048 10.449 2.4048 9.05101 1.60721 8.14939C0.108781 6.45552 1.59629 3.74093 3.73778 4.26125C4.87767 4.53821 6.02674 3.83922 6.36903 2.66065Z" stroke="#FFF7F7" stroke-width="2"/>
</svg>
