<svg width="17" height="13" viewBox="0 0 17 13" fill="none" xmlns="http://www.w3.org/2000/svg">
<g clip-path="url(#clip0_182_1122)">
<path d="M11.824 12.2996C11.738 12.4011 11.6215 12.4582 11.4999 12.4582C11.3784 12.4582 11.2619 12.4011 11.1759 12.2996L8.4259 9.0496C8.34241 8.94744 8.29621 8.81061 8.29726 8.66859C8.2983 8.52657 8.34651 8.39071 8.43148 8.29028C8.51646 8.18985 8.63142 8.13288 8.75159 8.13165C8.87177 8.13042 8.98754 8.18501 9.07398 8.28368L11.0416 10.6091V1.08331C11.0416 0.939649 11.0899 0.801873 11.1759 0.700291C11.2618 0.598709 11.3784 0.541641 11.4999 0.541641C11.6215 0.541641 11.7381 0.598709 11.824 0.700291C11.91 0.801873 11.9583 0.939649 11.9583 1.08331V10.6091L13.9259 8.28368C14.0123 8.18501 14.1281 8.13042 14.2483 8.13165C14.3685 8.13288 14.4834 8.18985 14.5684 8.29028C14.6534 8.39071 14.7016 8.52657 14.7026 8.66859C14.7037 8.81061 14.6575 8.94744 14.574 9.0496L11.824 12.2996Z" fill="#979797"/>
</g>
<g clip-path="url(#clip1_182_1122)">
<path d="M5.17602 0.700402C5.26197 0.598855 5.37852 0.541809 5.50006 0.541809C5.62159 0.541809 5.73815 0.598855 5.8241 0.700402L8.5741 3.9504C8.65759 4.05256 8.70379 4.18939 8.70274 4.33141C8.7017 4.47343 8.65349 4.60929 8.56852 4.70972C8.48354 4.81015 8.36858 4.86712 8.24841 4.86835C8.12823 4.86958 8.01246 4.81499 7.92602 4.71632L5.95839 2.39094L5.95839 11.9167C5.95839 12.0604 5.9101 12.1981 5.82415 12.2997C5.73819 12.4013 5.62161 12.4584 5.50006 12.4584C5.3785 12.4584 5.26192 12.4013 5.17597 12.2997C5.09001 12.1981 5.04172 12.0604 5.04172 11.9167L5.04172 2.39094L3.0741 4.71632C2.98766 4.81499 2.87188 4.86958 2.75171 4.86835C2.63153 4.86712 2.51658 4.81015 2.4316 4.70972C2.34662 4.60929 2.29842 4.47343 2.29737 4.33141C2.29633 4.18939 2.34253 4.05256 2.42602 3.9504L5.17602 0.700402Z" fill="#979797"/>
</g>
<defs>
<clipPath id="clip0_182_1122">
<rect width="13" height="11" fill="white" transform="matrix(0 -1 1 0 6 13)"/>
</clipPath>
<clipPath id="clip1_182_1122">
<rect width="13" height="11" fill="white" transform="matrix(0 1 -1 0 11 0)"/>
</clipPath>
</defs>
</svg>
